<svg viewBox="0 -34 512.001 512" xmlns="http://www.w3.org/2000/svg"><path d="m383.257812 37.550781c0-7.035156-7.625-12.746093-17.125-12.929687-.183593-9.496094-5.894531-17.121094-12.925781-17.121094-7.148437 0-12.945312 7.875-12.945312 17.589844 0 7.726562 1.089843 16.859375 6.1875 19.21875 2.359375 5.097656 11.492187 6.1875 19.21875 6.1875 9.714843 0 17.589843-5.796875 17.589843-12.945313zm0 0" fill="#ffbd48"/><path d="m10.03125 37.550781c0-7.035156 7.628906-12.746093 17.125-12.929687.183594-9.496094 5.894531-17.121094 12.925781-17.121094 7.148438 0 12.945313 7.875 12.945313 17.589844 0 7.726562-1.085938 16.859375-6.183594 19.21875-2.363281 5.097656-11.496094 6.1875-19.222656 6.1875-9.714844 0-17.589844-5.796875-17.589844-12.945313zm0 0" fill="#ffbd48"/><path d="m196.644531 142.363281c-51.871093 0-102.023437-15.175781-145.035156-43.882812-18.191406-12.140625-23.09375-36.726563-10.953125-54.914063 12.140625-18.191406 36.726562-23.09375 54.914062-10.953125 29.953126 19.988281 64.90625 30.554688 101.074219 30.554688 36.171875 0 71.121094-10.566407 101.074219-30.554688 18.191406-12.144531 42.773438-7.238281 54.917969 10.953125 12.136719 18.1875 7.234375 42.773438-10.953125 54.914063-43.011719 28.707031-93.167969 43.882812-145.039063 43.882812zm0 0" fill="#ff9c26"/><path d="m341.683594 98.480469c-43.011719 28.710937-93.171875 43.878906-145.039063 43.878906-51.867187 0-102.023437-15.167969-145.035156-43.878906-18.1875-12.136719-23.09375-36.726563-10.957031-54.921875 2.613281-3.910156 5.792968-7.207032 9.367187-9.847656-4.289062 14.710937 1.1875 31.09375 14.601563 40.050781 39.15625 26.136719 84.808594 39.949219 132.023437 39.949219 47.214844 0 92.871094-13.816407 132.027344-39.949219 13.414063-8.957031 18.886719-25.339844 14.601563-40.050781 3.570312 2.640624 6.75 5.9375 9.363281 9.847656 12.136719 18.195312 7.230469 42.785156-10.953125 54.921875zm0 0" fill="#f4810e"/><path d="m487.859375 286.0625v98.589844c0 5.378906-4.359375 9.738281-9.738281 9.738281h-445.082032c-5.367187 0-9.738281-4.359375-9.738281-9.738281v-209.832032c0-5.378906 4.371094-9.738281 9.738281-9.738281h328.730469c3.941407 0 7.492188 2.371094 9 5.988281l5.039063 12.082032 29.550781 70.839844c1.191406 2.859374 3.652344 4.96875 6.652344 5.710937l68.449219 16.898437c4.339843 1.078126 7.398437 4.980469 7.398437 9.460938zm0 0" fill="#ffbd48"/><g fill="#ff9c26"><path d="m375.808594 183.152344h-352.507813v-8.332032c0-5.378906 4.371094-9.738281 9.738281-9.738281h328.730469c3.941407 0 7.492188 2.371094 9 5.988281zm0 0"/><path d="m161.199219 394.386719h-107.871094c0-29.738281 24.203125-53.9375 53.941406-53.9375 29.742188 0 53.929688 24.199219 53.929688 53.9375zm0 0"/><path d="m432.25 394.386719h-107.871094c0-29.738281 24.191406-53.9375 53.929688-53.9375 29.742187 0 53.941406 24.199219 53.941406 53.9375zm0 0"/></g><path d="m487.859375 299.574219v61.6875h-13.71875c-5.378906 0-9.742187-4.363281-9.742187-9.746094v-32.875c0-10.53125 8.535156-19.066406 19.066406-19.066406zm0 0" fill="#ff5656"/><path d="m487.859375 337.875v23.386719h-13.71875c-5.378906 0-9.742187-4.367188-9.742187-9.746094v-13.640625zm0 0" fill="#fff3c1"/><path d="m295.90625 297.457031h83.597656v23.269531h-83.597656zm0 0" fill="#ff5656"/><path d="m247.195312 313.304688h-185.074218c-5.378906 0-9.742188-4.363282-9.742188-9.746094v-99.507813c0-5.382812 4.363282-9.746093 9.742188-9.746093h185.074218c5.382813 0 9.746094 4.363281 9.746094 9.746093v99.507813c0 5.382812-4.363281 9.746094-9.746094 9.746094zm0 0" fill="#1a94af"/><path d="m205.800781 224.925781c-9.414062 0-17.046875-7.632812-17.046875-17.046875v-13.574218h34.09375v13.574218c0 9.414063-7.632812 17.046875-17.046875 17.046875zm0 0" fill="#f0fffc"/><path d="m69.425781 224.925781c-9.414062 0-17.046875-7.632812-17.046875-17.046875v-3.828125c0-5.382812 4.359375-9.746093 9.742188-9.746093h24.351562v13.574218c0 9.414063-7.632812 17.046875-17.046875 17.046875zm0 0" fill="#f0fffc"/><path d="m103.519531 224.925781c-9.414062 0-17.046875-7.632812-17.046875-17.046875v-13.574218h34.09375v13.574218c0 9.414063-7.632812 17.046875-17.046875 17.046875zm0 0" fill="#ff5656"/><path d="m137.613281 224.925781c-9.414062 0-17.046875-7.632812-17.046875-17.046875v-13.574218h34.09375v13.574218c0 9.414063-7.632812 17.046875-17.046875 17.046875zm0 0" fill="#f0fffc"/><path d="m171.707031 224.925781c-9.417969 0-17.046875-7.632812-17.046875-17.046875v-13.574218h34.09375v13.574218c0 9.414063-7.632812 17.046875-17.046875 17.046875zm0 0" fill="#ff5656"/><path d="m239.894531 224.925781c-9.417969 0-17.046875-7.632812-17.046875-17.046875v-13.574218h24.347656c5.382813 0 9.746094 4.363281 9.746094 9.746093v3.828125c0 9.414063-7.632812 17.046875-17.046875 17.046875zm0 0" fill="#ff5656"/><path d="m375.257812 171.15625h-353.226562c-5.519531 0-10-4.480469-10-10v-9.066406c0-8.96875 7.273438-16.242188 16.242188-16.242188h340.746093c8.96875 0 16.238281 7.273438 16.238281 16.242188v9.066406c0 5.519531-4.476562 10-10 10zm0 0" fill="#ff5656"/><path d="m363.410156 256.675781h-32.949218c-5.519532 0-10-4.476562-10-10v-42.367187c0-5.519532 4.480468-10 10-10h15.589843c4.058594 0 7.710938 2.449218 9.25 6.207031l2.558594 6.242187 7.089844 17.308594 7.710937 18.8125c2.699219 6.578125-2.140625 13.796875-9.25 13.796875zm0 0" fill="#61daff"/><path d="m364.949219 224.066406-32.609375 32.609375h-1.878906c-5.519532 0-10-4.476562-10-10v-2.519531l37.398437-37.398438zm0 0" fill="#a1edff"/><path d="m31.035156 413.226562h-13.792968c-5.378907 0-9.742188-4.363281-9.742188-9.746093v-13.152344c0-5.382813 4.363281-9.746094 9.742188-9.746094h13.792968c5.378906 0 9.742188 4.363281 9.742188 9.746094v13.152344c0 5.382812-4.363282 9.746093-9.742188 9.746093zm0 0" fill="#f0fffc"/><path d="m494.757812 413.226562h-13.792968c-5.378906 0-9.742188-4.363281-9.742188-9.746093v-13.152344c0-5.382813 4.359375-9.746094 9.742188-9.746094h13.792968c5.378907 0 9.742188 4.363281 9.742188 9.746094v13.152344c0 5.382812-4.363281 9.746093-9.742188 9.746093zm0 0" fill="#f0fffc"/><path d="m259.492188 324.265625h-208.132813c-5.378906 0-9.742187-4.359375-9.742187-9.742187v-2.4375c0-5.378907 4.363281-9.742188 9.742187-9.742188h208.132813c5.382812 0 9.746093 4.363281 9.746093 9.742188v2.4375c0 5.378906-4.363281 9.742187-9.746093 9.742187zm0 0" fill="#f0fffc"/><path d="m231.644531 302.34375h-21.382812v-26.972656c0-3.625 2.9375-6.5625 6.5625-6.5625h8.257812c3.625 0 6.5625 2.9375 6.5625 6.5625zm0 0" fill="#ff5656"/><path d="m192.667969 302.34375h-21.382813v-26.972656c0-3.625 2.941406-6.5625 6.5625-6.5625h8.257813c3.625 0 6.5625 2.9375 6.5625 6.5625zm0 0" fill="#ffbd48"/><path d="m149.199219 394.386719c0 23.160156-18.773438 41.9375-41.933594 41.9375s-41.9375-18.777344-41.9375-41.9375c0-23.160157 18.777344-41.933594 41.9375-41.933594s41.933594 18.773437 41.933594 41.933594zm0 0" fill="#097789"/><path d="m121.070312 394.386719c0 7.625-6.179687 13.804687-13.804687 13.804687s-13.804687-6.179687-13.804687-13.804687c0-7.621094 6.179687-13.804688 13.804687-13.804688s13.804687 6.183594 13.804687 13.804688zm0 0" fill="#ffbd48"/><path d="m420.246094 394.386719c0 23.160156-18.773438 41.9375-41.933594 41.9375s-41.9375-18.777344-41.9375-41.9375c0-23.160157 18.777344-41.933594 41.9375-41.933594s41.933594 18.773437 41.933594 41.933594zm0 0" fill="#097789"/><path d="m392.117188 394.386719c0 7.625-6.179688 13.804687-13.804688 13.804687s-13.804688-6.179687-13.804688-13.804687c0-7.621094 6.179688-13.804688 13.804688-13.804688s13.804688 6.183594 13.804688 13.804688zm0 0" fill="#ffbd48"/><path d="m259.84375 386.886719h-103.710938c-3.621093-23.710938-24.15625-41.9375-48.867187-41.9375s-45.242187 18.226562-48.867187 41.9375h-10.464844c-1.601563-7.863281-8.570313-13.804688-16.898438-13.804688h-.234375v-102.347656c0-4.144531-3.355469-7.5-7.5-7.5s-7.5 3.355469-7.5 7.5v102.421875c-8.835937.738281-15.800781 8.148438-15.800781 17.171875v13.152344c0 9.507812 7.734375 17.246093 17.242188 17.246093h13.792968c9.507813 0 17.242188-7.738281 17.242188-17.246093v-1.59375h10.121094c3.621093 23.714843 24.15625 41.9375 48.867187 41.9375s45.242187-18.222657 48.867187-41.9375h103.710938c4.140625 0 7.5-3.355469 7.5-7.5 0-4.140625-3.359375-7.5-7.5-7.5zm-226.566406 16.59375c0 1.238281-1.003906 2.246093-2.242188 2.246093h-13.792968c-1.234376 0-2.242188-1.007812-2.242188-2.246093v-13.152344c0-1.238281 1.007812-2.246094 2.242188-2.246094h13.792968c1.238282 0 2.242188 1.007813 2.242188 2.246094zm73.988281 25.34375c-18.988281 0-34.4375-15.449219-34.4375-34.4375s15.449219-34.4375 34.4375-34.4375 34.4375 15.449219 34.4375 34.4375-15.449219 34.4375-34.4375 34.4375zm0 0"/><path d="m295.90625 188.804688c-4.144531 0-7.5 3.359374-7.5 7.5v167.863281c0 4.140625 3.355469 7.5 7.5 7.5 4.140625 0 7.5-3.359375 7.5-7.5v-35.941407h76.097656c4.144532 0 7.5-3.359374 7.5-7.5v-23.269531c0-4.140625-3.355468-7.5-7.5-7.5h-76.097656v-93.652343c0-4.140626-3.359375-7.5-7.5-7.5zm76.097656 116.152343v8.269531h-68.597656v-8.269531zm0 0"/><path d="m363.40625 264.171875c5.847656 0 11.277344-2.894531 14.535156-7.75 3.253906-4.851563 3.875-10.976563 1.660156-16.382813l-17.359374-42.367187c-2.703126-6.597656-9.058594-10.863281-16.191407-10.863281h-15.585937c-9.648438 0-17.5 7.851562-17.5 17.5v42.367187c0 9.648438 7.851562 17.5 17.5 17.5h32.941406zm-35.441406-17.5v-42.367187c0-1.375 1.121094-2.5 2.5-2.5h15.585937c1.015625 0 1.925781.609374 2.3125 1.554687l17.359375 42.367187c.4375 1.070313.039063 1.925782-.238281 2.339844-.277344.414063-.914063 1.105469-2.074219 1.105469h-32.945312c-1.378906 0-2.5-1.121094-2.5-2.5zm0 0"/><path d="m495.359375 373.113281v-87.054687c0-7.949219-5.390625-14.832032-13.109375-16.738282l-68.4375-16.898437c-.6875-.171875-1.261719-.664063-1.53125-1.3125l-30.71875-73.648437c6.539062-2.539063 11.195312-8.878907 11.195312-16.304688v-9.066406c0-13.089844-10.648437-23.742188-23.738281-23.742188h-66.828125c15.179688-6.480468 29.777344-14.363281 43.65625-23.625 15.8125-10.554687 23.167969-29.089844 20.324219-46.738281 13.824219-.210937 24.585937-9.105469 24.585937-20.433594 0-9.335937-7.488281-17.128906-17.941406-19.609375-2.476562-10.453125-10.269531-17.941406-19.609375-17.941406-10.152343 0-18.355469 8.648438-20.097656 20.402344-1.375-.40625-2.769531-.757813-4.195313-1.042969-12.339843-2.460937-24.894531.03125-35.355468 7.015625-24.398438 16.28125-52.765625 26.195312-82.03125 28.664062-4.128906.347657-7.191406 3.976563-6.84375 8.101563.347656 4.128906 3.988281 7.1875 8.105468 6.84375 31.785157-2.679687 62.59375-13.445313 89.097657-31.132813 7.128906-4.761718 15.691406-6.457031 24.09375-4.78125 8.40625 1.675782 15.660156 6.527344 20.417969 13.660157 9.824218 14.71875 5.84375 34.6875-8.878907 44.515625-24.847656 16.582031-52.101562 28.53125-81.007812 35.515625-.566407.136719-1.09375.339843-1.589844.585937h-115.671875c-.027344-.003906-.050781-.015625-.078125-.019531-29.792969-6.894531-57.851563-19.03125-83.398437-36.082031-7.128907-4.761719-11.980469-12.011719-13.65625-20.421875-1.679688-8.40625.019531-16.964844 4.78125-24.097657 4.757812-7.128906 12.007812-11.980468 20.414062-13.65625 8.410156-1.679687 16.96875.019532 24.097656 4.78125 26.714844 17.828126 57.777344 28.613282 89.835938 31.195313 4.152344.328125 7.746094-2.75 8.074218-6.875.332032-4.128906-2.742187-7.746094-6.871093-8.078125-29.515625-2.375-58.117188-12.304688-82.710938-28.71875-10.464843-6.984375-23.019531-9.476562-35.355469-7.015625-1.425781.285156-2.824218.636719-4.199218 1.042969-1.742188-11.75-9.941406-20.402344-20.097656-20.402344-9.335938 0-17.128907 7.488281-19.605469 17.941406-10.460938 2.476563-17.949219 10.269532-17.949219 19.609375 0 11.320313 10.746094 20.210938 24.558594 20.433594-.890625 5.492187-.808594 11.152344.3125 16.773437 2.460937 12.335938 9.578125 22.980469 20.042968 29.960938 13.878907 9.265625 28.46875 17.148438 43.640626 23.628906h-62.8125c-13.089844 0-23.742188 10.648438-23.742188 23.738282v9.066406c0 7.453125 4.691406 13.816406 11.269531 16.335937v62.933594c0 4.140625 3.355469 7.5 7.5 7.5s7.5-3.359375 7.5-7.5v-61.769531h335.007813l32.628906 78.230468c2.09375 5.019532 6.5 8.796876 11.78125 10.101563l68.4375 16.898437c1.003906.246094 1.703125 1.144532 1.703125 2.175782v6.199218c-13.1875 1.542969-23.460937 12.785157-23.460937 26.382813v32.875c0 9.507813 7.734374 17.242187 17.242187 17.242187h6.21875v4.355469c-8.058594.277344-14.730469 6.097657-16.289063 13.773438h-36.886718c-3.625-23.714844-24.160156-41.9375-48.871094-41.9375-24.707031 0-45.242188 18.222656-48.867188 41.9375h-39.289062c-4.140625 0-7.5 3.355469-7.5 7.5 0 4.140625 3.359375 7.5 7.5 7.5h39.289062c3.625 23.710937 24.160157 41.9375 48.867188 41.9375 24.710938 0 45.246094-18.226563 48.871094-41.9375h36.539062v1.59375c0 9.507812 7.734375 17.242187 17.242188 17.242187h13.792968c9.507813 0 17.242188-7.734375 17.242188-17.242187v-13.15625c0-9.300781-7.410156-16.890625-16.640625-17.210938zm-147.597656-348.023437c0-6.160156 3.226562-10.089844 5.445312-10.089844 2.136719 0 5.3125 3.804688 5.429688 9.765625.078125 4.03125 3.324219 7.277344 7.351562 7.355469 5.964844.117187 9.769531 3.292968 9.769531 5.429687 0 2.21875-3.929687 5.445313-10.089843 5.445313-1.707031 0-3.285157-.066406-4.734375-.179688-.636719-1.15625-1.316406-2.296875-2.0625-3.414062-3.042969-4.5625-6.78125-8.484375-11.054688-11.667969-.03125-.847656-.054687-1.726563-.054687-2.644531zm-320.140625 17.90625c-6.15625 0-10.089844-3.226563-10.089844-5.445313 0-2.136719 3.808594-5.3125 9.769531-5.429687 4.027344-.078125 7.277344-3.324219 7.355469-7.355469.113281-5.960937 3.289062-9.765625 5.425781-9.765625 2.222657 0 5.445313 3.929688 5.445313 10.085938 0 .921874-.019532 1.800781-.054688 2.648437-4.273437 3.179687-8.011718 7.105469-11.054687 11.667969-.742188 1.109375-1.425781 2.253906-2.0625 3.410156-1.453125.117188-3.027344.183594-4.734375.183594zm-8.089844 109.09375c0-4.820313 3.921875-8.742188 8.742188-8.742188h340.742187c4.820313 0 8.742187 3.921875 8.742187 8.742188v9.066406c0 1.375-1.121093 2.5-2.5 2.5h-353.226562c-1.378906 0-2.5-1.125-2.5-2.5zm358.78125 276.734375c-18.988281 0-34.4375-15.449219-34.4375-34.4375s15.449219-34.4375 34.4375-34.4375 34.4375 15.449219 34.4375 34.4375-15.449219 34.4375-34.4375 34.4375zm102.046875-121.316407v22.867188h-8.460937v-11.734375c0-5.300781 3.589843-9.769531 8.460937-11.132813zm-6.21875 46.253907c-1.234375 0-2.242187-1.007813-2.242187-2.246094v-6.140625h8.460937v8.386719zm22.859375 49.71875c0 1.238281-1.007812 2.246093-2.242188 2.246093h-13.792968c-1.238282 0-2.242188-1.007812-2.242188-2.246093v-13.152344c0-1.238281 1.003906-2.246094 2.242188-2.246094h13.792968c1.234376 0 2.242188 1.007813 2.242188 2.246094zm0 0"/><path d="m264.4375 295.574219v-91.523438c0-9.507812-7.734375-17.246093-17.242188-17.246093h-185.074218c-9.507813 0-17.242188 7.738281-17.242188 17.246093v92.066407c-6.304687 2.566406-10.761718 8.753906-10.761718 15.96875v2.4375c0 9.507812 7.734374 17.242187 17.242187 17.242187h208.132813c9.511718 0 17.246093-7.734375 17.246093-17.242187v-2.4375c0-7.789063-5.195312-14.382813-12.300781-16.511719zm-46.675781-19.265625h6.382812v18.535156h-6.382812zm13.335937-13.628906v-8.875c0-4.140626-3.355468-7.5-7.5-7.5-4.144531 0-7.5 3.359374-7.5 7.5v7.539062c-7.414062.382812-13.335937 6.515625-13.335937 14.027344v19.472656h-2.59375v-19.472656c0-5.601563-3.296875-10.433594-8.046875-12.691406v-8.875c0-4.140626-3.355469-7.5-7.5-7.5-4.140625 0-7.5 3.359374-7.5 7.5v7.539062c-7.414063.382812-13.335938 6.515625-13.335938 14.027344v19.472656h-103.90625v-64.351562c2.9375 1.246093 6.164063 1.933593 9.546875 1.933593 6.617188 0 12.628907-2.636719 17.046875-6.910156 4.417969 4.273437 10.429688 6.910156 17.046875 6.910156 6.617188 0 12.628907-2.636719 17.046875-6.910156 4.417969 4.273437 10.429688 6.910156 17.046875 6.910156 6.617188 0 12.628907-2.636719 17.046875-6.910156 4.417969 4.273437 10.429688 6.910156 17.046875 6.910156 6.617188 0 12.628907-2.636719 17.046875-6.910156 4.417969 4.273437 10.429688 6.910156 17.046875 6.910156 6.617188 0 12.628907-2.636719 17.046875-6.910156 4.417969 4.273437 10.429688 6.910156 17.046875 6.910156 3.382813 0 6.609375-.6875 9.546875-1.933593v64.351562h-10.296875v-19.472656c0-5.601563-3.296875-10.433594-8.046875-12.691406zm-52.3125 13.628906h6.382813v18.535156h-6.382813zm-31.625-68.429688c0 5.261719-4.285156 9.546875-9.546875 9.546875-5.265625 0-9.546875-4.285156-9.546875-9.546875v-6.074218h19.09375zm68.1875 0c0 5.261719-4.285156 9.546875-9.546875 9.546875-5.265625 0-9.546875-4.285156-9.546875-9.546875v-6.074218h19.09375zm34.089844-3.828125v3.828125c0 5.261719-4.28125 9.546875-9.542969 9.546875-5.265625 0-9.546875-4.285156-9.546875-9.546875v-6.074218h16.847656c1.238282 0 2.242188 1.007812 2.242188 2.246093zm-68.183594-2.246093v6.074218c0 5.261719-4.285156 9.546875-9.546875 9.546875-5.265625 0-9.546875-4.285156-9.546875-9.546875v-6.074218zm-68.1875 0v6.074218c0 5.261719-4.285156 9.546875-9.546875 9.546875-5.265625 0-9.546875-4.285156-9.546875-9.546875v-6.074218zm-53.1875 2.246093c0-1.238281 1.007813-2.246093 2.242188-2.246093h16.851562v6.074218c0 5.261719-4.28125 9.546875-9.546875 9.546875s-9.546875-4.285156-9.546875-9.546875zm201.859375 110.472657c0 1.234374-1.007812 2.242187-2.246093 2.242187h-208.132813c-1.234375 0-2.242187-1.003906-2.242187-2.242187v-2.4375c0-1.238282 1.007812-2.242188 2.242187-2.242188h208.132813c1.238281 0 2.246093 1.003906 2.246093 2.242188zm0 0"/><path d="m107.265625 373.082031c-11.746094 0-21.304687 9.558594-21.304687 21.304688 0 11.746093 9.558593 21.304687 21.304687 21.304687s21.304687-9.558594 21.304687-21.304687c0-11.746094-9.558593-21.304688-21.304687-21.304688zm0 27.609375c-3.476563 0-6.304687-2.828125-6.304687-6.304687 0-3.476563 2.828124-6.304688 6.304687-6.304688s6.304687 2.828125 6.304687 6.304688c0 3.476562-2.828124 6.304687-6.304687 6.304687zm0 0"/><path d="m378.3125 373.082031c-11.746094 0-21.304688 9.558594-21.304688 21.304688 0 11.746093 9.558594 21.304687 21.304688 21.304687s21.304688-9.558594 21.304688-21.304687c0-11.746094-9.558594-21.304688-21.304688-21.304688zm0 27.609375c-3.476562 0-6.304688-2.828125-6.304688-6.304687 0-3.476563 2.828126-6.304688 6.304688-6.304688s6.304688 2.828125 6.304688 6.304688c0 3.476562-2.828126 6.304687-6.304688 6.304687zm0 0"/><path d="m263.542969 349.570312c0-4.144531-3.355469-7.5-7.5-7.5h-.085938c-4.144531 0-7.457031 3.355469-7.457031 7.5 0 4.140626 3.398438 7.5 7.542969 7.5s7.5-3.359374 7.5-7.5zm0 0"/><path d="m243.585938 349.570312c0-4.144531-3.359376-7.5-7.5-7.5h-.085938c-4.144531 0-7.457031 3.355469-7.457031 7.5 0 4.140626 3.398437 7.5 7.542969 7.5 4.140624 0 7.5-3.359374 7.5-7.5zm0 0"/></svg>