<?xml version="1.0" encoding="iso-8859-1"?>
<!-- Generator: Adobe Illustrator 19.0.0, SVG Export Plug-In . SVG Version: 6.00 Build 0)  -->
<svg version="1.1" id="Capa_1" xmlns="http://www.w3.org/2000/svg" xmlns:xlink="http://www.w3.org/1999/xlink" x="0px" y="0px"
	 viewBox="0 0 512 512" style="enable-background:new 0 0 512 512;" xml:space="preserve">
<path style="fill:#2DB37F;" d="M426.98,255l-2.656-8.243C414.173,215.8,385.521,195,353.03,195H317l-55,100L426.98,255z"/>
<path style="fill:#DDEFFB;" d="M247,360l185.931-40c-0.005-0.003-5.95-65-5.95-65H262L247,360z"/>
<polygon style="fill:#2DB37F;" points="512,355.615 432.931,320 276,320 316,444.5 512,444.5 "/>
<g>
	<path style="fill:#FB9D46;" d="M212,0H105C63.645,0,30,33.645,30,75v30h257V75C287,33.645,253.355,0,212,0z"/>
	<rect x="30" y="135" style="fill:#FB9D46;" width="257" height="90"/>
</g>
<path style="fill:#F15D4A;" d="M272,75H45C20.187,75,0,95.187,0,120s20.187,45,45,45h227c24.813,0,45-20.187,45-45
	S296.813,75,272,75z"/>
<polygon style="fill:#5AC779;" points="0,320 0,377 127.5,444.5 316,444.5 316,320 158,290 "/>
<rect y="195" style="fill:#AFF078;" width="317" height="125"/>
<rect y="377" style="fill:#2DB37F;" width="127.5" height="67.5"/>
<circle style="fill:#383838;" cx="127.5" cy="444.5" r="67.5"/>
<circle style="fill:#FFFFFF;" cx="127.5" cy="444.5" r="37.5"/>
<circle cx="384.5" cy="444.5" r="67.5"/>
<circle style="fill:#DDEFFB;" cx="384.5" cy="444.5" r="37.5"/>
<g>
</g>
<g>
</g>
<g>
</g>
<g>
</g>
<g>
</g>
<g>
</g>
<g>
</g>
<g>
</g>
<g>
</g>
<g>
</g>
<g>
</g>
<g>
</g>
<g>
</g>
<g>
</g>
<g>
</g>
</svg>
